<svg width="40" height="18" viewBox="0 0 40 18" xmlns="http://www.w3.org/2000/svg" xmlns:xlink="http://www.w3.org/1999/xlink"><title>Group 2</title><defs><path d="M39.942 10.064C38.147 7.598 35.266 6 32.017 6c-3.27 0-6.169 1.62-7.961 4.113" id="a"/><mask id="g" x="0" y="0" width="16" height="5.333" fill="#fff"><use xlink:href="#a"/></mask><path d="M15.942 10.064C14.147 7.598 11.266 6 8.017 6 4.747 6 1.848 7.62.056 10.113" id="b"/><mask id="h" x="0" y="0" width="16" height="5.333" fill="#fff"><use xlink:href="#b"/></mask><circle id="c" cx="32" cy="4" r="4"/><mask id="i" x="0" y="0" width="8" height="8" fill="#fff"><use xlink:href="#c"/></mask><circle id="d" cx="8" cy="4" r="4"/><mask id="j" x="0" y="0" width="8" height="8" fill="#fff"><use xlink:href="#d"/></mask><path d="M32 18c-2.779-5.123-7.102-8-11.294-8C15.12 10 10.772 12.915 8 18" id="e"/><mask id="k" x="0" y="0" width="24" height="8" fill="#fff"><use xlink:href="#e"/></mask><ellipse id="f" cx="20" cy="6" rx="6" ry="6"/><mask id="l" x="0" y="0" width="12" height="12" fill="#fff"><use xlink:href="#f"/></mask></defs><g stroke-width="4" stroke="#FFF" fill="none" fill-rule="evenodd"><use mask="url(#g)" xlink:href="#a"/><use mask="url(#h)" xlink:href="#b"/><use mask="url(#i)" xlink:href="#c"/><use mask="url(#j)" xlink:href="#d"/><use mask="url(#k)" xlink:href="#e"/><use mask="url(#l)" xlink:href="#f"/></g></svg>