<svg xmlns="http://www.w3.org/2000/svg" xmlns:xlink="http://www.w3.org/1999/xlink" width="1022" height="436" viewBox="0 0 1022 436">
  <defs>
    <linearGradient id="graph_wlines-c" x1="62.608%" x2="58.26%" y1="15.495%" y2="111.372%">
      <stop offset="0%" stop-color="#F825F0"/>
      <stop offset="100%" stop-color="#7C25F8"/>
    </linearGradient>
    <path id="graph_wlines-b" d="M0,226.025424 C0,226.025424 4.48366688,226.025424 10.0008845,226.025424 L22.7388088,226.025424 C28.2621448,226.025424 34.2959823,221.817743 36.2075743,216.649444 L43.7499762,196.257335 C45.6652339,191.079125 51.695409,186.881356 57.2095617,186.881356 L82.6279383,186.881356 C88.1462043,186.881356 93.3053741,182.454039 94.1499068,177.001446 L103.801879,114.684995 C104.64702,109.228471 109.819146,104.805085 115.327406,104.805085 L133.47438,104.805085 C138.994611,104.805085 143.667485,109.275762 143.911992,114.800932 L153.923723,341.038052 C154.168025,346.558605 158.849908,351.033898 164.366347,351.033898 L222.54129,351.033898 C228.06429,351.033898 233.1267,346.59202 233.848436,341.11316 L242.046701,278.878366 C242.768465,273.399293 247.828464,268.957627 253.351921,268.957627 L298.834608,268.957627 C304.356544,268.957627 309.380943,264.513514 310.05655,259.0344 L320.221051,176.601193 C320.896822,171.120746 325.921406,166.677966 331.452389,166.677966 L344.126183,166.677966 C349.653308,166.677966 355.396536,170.979623 356.951614,176.277717 L369.476957,218.951097 C371.033122,224.252893 376.772149,228.550847 382.304208,228.550847 L398.651879,228.550847 C404.18001,228.550847 409.577529,232.934163 410.707193,238.339425 L419.282823,279.372439 C420.412659,284.778521 425.796971,289.161017 431.327732,289.161017 L465.932491,289.161017 C471.454875,289.161017 477.744724,285.07256 479.985399,280.019862 L480.837323,278.098783 C483.076147,273.050262 489.358876,268.957627 494.899269,268.957627 L502.123945,268.957627 C507.65132,268.957627 512.806646,264.535802 513.640355,259.070285 L523.336431,195.505986 C524.169393,190.045358 529.316563,185.618644 534.84172,185.618644 L551.168995,185.618644 C556.690228,185.618644 562.639101,189.843451 564.458289,195.061076 L572.402425,217.845704 C574.220667,223.060615 580.166563,227.288136 585.69172,227.288136 L602.018995,227.288136 C607.540228,227.288136 613.489101,231.512943 615.308289,236.730567 L623.252425,259.515195 C625.070667,264.730106 631.020241,268.957627 636.54819,268.957627 L651.046453,268.957627 C656.57126,268.957627 661.571363,264.516965 662.215903,259.027152 L674.412668,155.142339 C675.056579,149.657889 680.053384,145.211864 685.576445,145.211864 L734.591412,145.211864 C740.113085,145.211864 745.543881,140.831256 746.718226,135.44222 L751.540703,113.312017 C752.716484,107.916392 758.142174,103.542373 763.678574,103.542373 L758.302348,103.542373 C763.830128,103.542373 770.320583,107.542231 772.798513,112.474967 L774.607409,116.07588 C777.08564,121.009216 783.566563,125.008475 789.09172,125.008475 L805.418995,125.008475 C810.940228,125.008475 816.815726,129.266128 818.541737,134.516535 L826.818977,159.69533 C828.545235,164.946486 834.427225,169.20339 839.945245,169.20339 L854.640036,169.20339 C860.163216,169.20339 867.774447,172.38788 871.655544,176.331743 L873.779738,178.490291 C877.653963,182.427172 885.279948,185.618644 890.788882,185.618644 L910.918733,185.618644 C916.438399,185.618644 921.621257,181.20171 922.496467,175.743817 L930.061148,128.569742 C930.935688,123.116026 936.127824,118.694915 941.647667,118.694915 L941.618404,118.694915"/>
    <filter id="graph_wlines-a" width="103.4%" height="116.2%" x="-1.7%" y="-4.4%" filterUnits="objectBoundingBox">
      <feMorphology in="SourceAlpha" operator="dilate" radius="2" result="shadowSpreadOuter1"/>
      <feOffset dy="13" in="shadowSpreadOuter1" result="shadowOffsetOuter1"/>
      <feMorphology in="SourceAlpha" radius="2" result="shadowInner"/>
      <feOffset dy="13" in="shadowInner" result="shadowInner"/>
      <feComposite in="shadowOffsetOuter1" in2="shadowInner" operator="out" result="shadowOffsetOuter1"/>
      <feGaussianBlur in="shadowOffsetOuter1" result="shadowBlurOuter1" stdDeviation="2.5"/>
      <feColorMatrix in="shadowBlurOuter1" values="0 0 0 0 0   0 0 0 0 0   0 0 0 0 0  0 0 0 0.5 0"/>
    </filter>
  </defs>
  <g fill="none" fill-rule="evenodd" transform="translate(7 -4)">
    <path stroke="#DBDBDB" stroke-dasharray="1 6" stroke-linecap="round" stroke-linejoin="bevel" stroke-opacity=".5" stroke-width=".5" d="M0 62.5L997 62.5M0 102.5L997 102.5M0 143.5L997 143.5M0 183.5L997 183.5"/>
    <path stroke="#DBDBDB" stroke-dasharray="1 6" stroke-linecap="round" stroke-linejoin="bevel" stroke-opacity=".5" d="M0,223.5 L997,223.5"/>
    <path stroke="#DBDBDB" stroke-dasharray="1 6" stroke-linecap="round" stroke-linejoin="bevel" stroke-opacity=".5" stroke-width=".5" d="M0 263.5L997 263.5M0 303.5L997 303.5M0 344.5L997 344.5M0 384.5L997 384.5M0 437.5L997 437.5M0 10.5L997 10.5"/>
    <text fill="#C5C5C5" font-family="Gilroy-Bold, Gilroy" font-size="9" font-weight="bold">
      <tspan x="1009.471" y="225.695">N</tspan>
    </text>
    <text fill="#9B9B9B" font-family="SFUIText-Regular, SF UI Text" font-size="12">
      <tspan x="1008.109" y="11">+</tspan>
    </text>
    <text fill="#9B9B9B" font-family="SFUIText-Regular, SF UI Text" font-size="12">
      <tspan x="1009.17" y="443">-</tspan>
    </text>
    <path stroke="#FFF" stroke-dasharray="2.8" stroke-width="2" d="M0,228.550847 C0,228.550847 4.4680317,228.550847 10.0008079,228.550847 L40.8491921,228.550847 C46.3724858,228.550847 52.5250098,224.391448 54.5868399,219.271492 L59.8256601,206.262406 C61.8894598,201.13756 68.035233,196.983051 73.5648249,196.983051 L84.4333894,196.983051 C89.9575209,196.983051 95.2551431,201.378247 96.2672561,206.80695 L105.316673,255.345593 C106.328205,260.771182 111.626742,265.169492 117.146203,265.169492 L180.724423,265.169492 C186.24616,265.169492 191.259775,260.721973 191.920819,255.250799 L204.017664,155.130557 C204.679526,149.652614 209.684248,145.211864 215.222474,145.211864 L296.909669,145.211864 C302.436053,145.211864 308.337353,149.447072 310.099368,154.697614 L316.445275,173.607471 C318.203361,178.846306 324.111263,183.09322 329.632822,183.09322 L391.378838,183.09322 C396.904033,183.09322 402.798121,178.855272 404.551357,173.604425 L416.344231,138.285406 C418.094017,133.044889 423.990385,128.79661 429.504401,128.79661 L447.740478,128.79661 C453.258852,128.79661 460.331753,132.431905 463.545753,136.926771 L466.365197,140.869839 C469.575835,145.360003 472.696798,153.443977 473.33694,158.933412 L481.916632,232.507266 C482.556381,237.993338 486.317412,245.540539 490.296722,249.344901 L490.38185,249.426286 C494.370296,253.239383 502.083497,256.283313 507.603842,256.225157 L607.464015,255.173148 C612.987012,255.114964 619.067626,259.248298 621.046297,264.407423 L628.410846,283.609526 C630.389136,288.767659 636.474039,293.003815 641.988922,293.071087 L725.512864,294.08993 C731.033538,294.157273 736.7452,289.913977 738.275188,284.594983 L745.455169,259.633831 C746.982932,254.322574 752.697317,249.973117 758.218548,249.919048 L867.165381,248.852138 C872.686637,248.798069 877.981929,244.359041 878.994042,238.930338 L888.043458,190.391695 C889.054991,184.966106 892.040018,176.659317 894.724059,171.813849 L896.11813,169.29715 C898.796191,164.462478 905.440195,160.638917 910.974837,160.757349 L941.613781,161.412972"/>
    <polyline points="0 231.076 12.713 212.136 79.907 212.136 90.804 243.703 159.814 243.703 179.07 324.477 213.764 325.64 228.825 248.754 259.698 248.754 272.416 340.046 300.464 340.919 321.445 195.72 386.117 194.781 397.72 152.788 419.512 152.788 430.793 93.505 513.948 93.441 530.293 174.254 559.35 175.517 573.655 239.896 628.361 239.915 640.497 354.995 661.05 218.449 707.673 218.584 724.612 241.178 837.209 241.178 844.473 204.559 919.703 204.019 928.013 226.025 944.756 226.025"/>
    <path stroke="#31A4DE" stroke-dasharray="3" stroke-width="1.4" d="M1,192.84995 C1,192.84995 4.68652324,190.312205 9.23625658,187.18024 L5.56862565,189.70498 C10.1173846,186.573685 18.285037,184.03527 23.809937,184.03527 L71.4827764,184.03527 C77.0084155,184.03527 84.1727682,187.629125 87.4734331,192.047148 L86.4778425,190.714525 C89.7835992,195.139363 96.9440985,198.726403 102.459839,198.726403 L151.979267,198.726403 C157.500124,198.726403 164.032925,202.71367 166.559766,207.611045 L176.786746,227.432383 C179.318477,232.339235 185.850107,236.386403 191.361664,236.471769 L206.326329,236.703551 C211.844104,236.789014 218.064824,232.736261 220.223985,227.643719 L227.581038,210.291561 C229.738728,205.202491 235.959952,201.076984 241.487803,201.076984 L252.585528,201.076984 C258.108333,201.076984 263.878346,205.364834 265.472342,210.651283 L272.509005,233.988191 C274.103391,239.27593 279.872488,243.626866 285.396204,243.706302 L293.647449,243.824961 C299.170467,243.904386 304.985742,239.690523 306.630754,234.430547 L321.797596,185.934108 C323.44506,180.66629 329.258122,176.365826 334.780819,176.328756 L379.923161,176.025748 C385.446134,175.988676 392.21832,172.120936 395.057759,167.3727 L396.475515,165.001864 C399.31115,160.259989 406.078504,156.41594 411.605929,156.41594 L413.565071,156.41594 C419.085733,156.41594 425.268375,152.270579 427.368438,147.171468 L431.116513,138.070858 C433.21924,132.965277 439.397486,128.824796 444.923208,128.822832 L508.683725,128.800165 C514.206225,128.798202 520.476311,132.893059 522.689449,137.948788 L531.140162,157.253733 C533.35281,162.308341 539.623601,166.495801 545.137145,166.606501 L554.424189,166.792965 C559.941861,166.903748 566.358052,171.034207 568.747699,176.003102 L574.490732,187.944841 C576.883716,192.920676 583.309593,196.955127 588.818396,196.956035 L623.932253,196.96182 C629.452219,196.96273 634.92223,201.323506 636.151424,206.708718 L643.927089,240.774634 C645.155585,246.156788 647.53793,246.264143 649.250835,241.006349 L663.754518,196.487033 C665.466246,191.232852 671.335522,186.979504 676.85643,186.986905 L703.81338,187.023043 C709.337638,187.030448 717.623822,189.38306 722.322117,192.27838 L722.372104,192.309184 C727.069939,195.204221 735.359209,197.551112 740.868494,197.551112 L834.302752,197.551112 C839.82019,197.551112 846.059553,193.436654 848.240624,188.356867 L847.662368,189.703643 C849.842604,184.625802 856.095252,180.494513 861.613942,180.476198 L917.382741,180.291118 C922.907747,180.272782 930.220266,183.725206 933.708931,187.994028 L929.434121,182.763259 C932.925821,187.035794 940.231642,190.499368 945.761777,190.499368 L942.616054,190.499368"/>
    <g stroke-linecap="round">
      <use fill="#000" filter="url(#graph_wlines-a)" xlink:href="#graph_wlines-b"/>
      <use stroke="url(#graph_wlines-c)" stroke-width="4" xlink:href="#graph_wlines-b"/>
    </g>
  </g>
</svg>
