<svg xmlns="http://www.w3.org/2000/svg" width="160" height="52" viewBox="0 0 160 52">
  <g fill="none" fill-rule="evenodd">
    <path fill="#FEFEFE" d="M8.68778281,43.3333333 L43.438914,43.3333333 L43.438914,8.66666667 L8.68778281,8.66666667 L8.68778281,43.3333333 Z M11.399095,40.6293333 L40.7283258,40.6293333 L40.7283258,11.3713889 L11.399095,11.3713889 L11.399095,40.6293333 Z"/>
    <path fill="#FEFEFE" d="M26.0633484,0 C11.6691403,0 0,11.6407778 0,26 C0,40.3592222 11.6691403,52 26.0633484,52 C40.4575566,52 52.1266968,40.3592222 52.1266968,26 C52.1266968,11.6407778 40.4575566,0 26.0633484,0 M26.0633484,2.85566667 C38.8561086,2.85566667 49.2640724,13.2383333 49.2640724,26 C49.2640724,38.7616667 38.8561086,49.1443333 26.0633484,49.1443333 C13.2705882,49.1443333 2.86262443,38.7616667 2.86262443,26 C2.86262443,13.2383333 13.2705882,2.85566667 26.0633484,2.85566667"/>
    <path stroke="#FEFEFE" stroke-width="2.704" d="M0,26 L50.7373756,26"/>
    <text fill="#FFFFFF" font-family="AvenirNext-Medium, Avenir Next" font-size="23.111" font-weight="400" letter-spacing="-.578">
      <tspan x="62.986" y="35.278">React2</tspan>
    </text>
    <text fill="#F9A18B" font-family="AvenirNext-Medium, Avenir Next" font-size="8.667" font-weight="400">
      <tspan x="137.557" y="35.722">BETA</tspan>
    </text>
  </g>
</svg>
