<svg xmlns="http://www.w3.org/2000/svg" width="50" height="50" viewBox="0 0 50 50">
  <g fill="#FEFEFE" fill-rule="evenodd">
    <path d="M8.30769231,41.6666667 L41.5384615,41.6666667 L41.5384615,8.33333333 L8.30769231,8.33333333 L8.30769231,41.6666667 Z M10.9003846,39.0666667 L38.9464615,39.0666667 L38.9464615,10.9340278 L10.9003846,10.9340278 L10.9003846,39.0666667 Z"/>
    <path d="M24.9230769,0 C11.1586154,0 0,11.1930556 0,25 C0,38.8069444 11.1586154,50 24.9230769,50 C38.6875385,50 49.8461538,38.8069444 49.8461538,25 C49.8461538,11.1930556 38.6875385,0 24.9230769,0 M24.9230769,2.74583333 C37.1561538,2.74583333 47.1087692,12.7291667 47.1087692,25 C47.1087692,37.2708333 37.1561538,47.2541667 24.9230769,47.2541667 C12.69,47.2541667 2.73738462,37.2708333 2.73738462,25 C2.73738462,12.7291667 12.69,2.74583333 24.9230769,2.74583333"/>
    <polygon fill-rule="nonzero" points="0 26.3 48.518 26.3 48.518 23.7 0 23.7"/>
  </g>
</svg>
