<?xml version="1.0" standalone="no"?>
<!DOCTYPE svg PUBLIC "-//W3C//DTD SVG 20010904//EN"
 "http://www.w3.org/TR/2001/REC-SVG-20010904/DTD/svg10.dtd">
<svg version="1.0" xmlns="http://www.w3.org/2000/svg"
 width="700.000000pt" height="700.000000pt" viewBox="0 0 700.000000 700.000000"
 preserveAspectRatio="xMidYMid meet">
<metadata>
Created by potrace 1.11, written by Peter Selinger 2001-2013
</metadata>
<g transform="translate(0.000000,700.000000) scale(0.100000,-0.100000)"
fill="#000000" stroke="none">
<path d="M3278 6995 c-2 -1 -39 -5 -83 -9 -44 -3 -96 -8 -115 -11 -19 -3 -55
-7 -80 -10 -25 -2 -56 -7 -70 -10 -14 -2 -41 -7 -60 -10 -90 -15 -317 -71
-430 -107 -640 -205 -1194 -578 -1630 -1097 -77 -93 -260 -342 -260 -355 0 -3
-13 -24 -29 -48 -130 -196 -289 -549 -375 -833 -25 -86 -64 -246 -81 -340 -10
-49 -18 -97 -20 -105 -2 -9 -6 -43 -10 -75 -4 -33 -9 -69 -11 -80 -19 -101
-26 -572 -11 -715 9 -85 26 -210 33 -255 3 -16 7 -39 9 -50 23 -168 111 -473
197 -689 122 -307 339 -678 524 -896 126 -147 172 -198 254 -280 112 -111 159
-153 260 -236 123 -99 310 -232 395 -280 11 -6 49 -28 85 -49 191 -109 403
-204 620 -275 128 -43 339 -99 425 -114 17 -3 39 -8 50 -10 33 -6 156 -25 205
-31 221 -26 675 -26 834 0 11 2 41 6 66 9 54 7 190 30 240 42 14 3 36 8 50 10
116 21 378 104 554 176 161 66 487 235 540 280 6 5 43 29 81 55 224 147 484
375 665 583 36 41 67 77 70 80 23 22 130 165 191 255 105 152 157 241 244 414
150 298 253 602 311 916 8 44 16 87 19 95 2 8 7 44 11 80 4 36 8 76 10 90 25
178 24 660 -1 789 -2 11 -6 46 -10 78 -3 32 -8 65 -10 73 -2 8 -6 33 -10 55
-3 22 -15 83 -26 135 -11 52 -23 106 -25 118 -11 58 -100 329 -146 442 -49
123 -188 411 -212 440 -7 8 -16 23 -19 32 -11 32 -174 273 -253 374 -463 595
-1092 1020 -1809 1223 -101 28 -250 62 -335 76 -19 3 -46 7 -60 10 -58 11
-146 23 -230 31 -52 5 -527 13 -532 9z m450 -389 c50 -4 98 -8 108 -10 11 -2
46 -7 79 -10 33 -4 67 -9 75 -11 8 -2 31 -6 50 -9 19 -3 46 -8 60 -11 14 -3
34 -7 45 -9 46 -9 192 -49 268 -73 394 -123 794 -345 1091 -605 l39 -34 -2052
0 -2052 -1 36 34 c201 184 574 412 855 523 172 68 430 144 575 170 33 5 69 12
80 14 11 2 43 7 70 10 28 4 66 9 85 11 19 3 82 8 140 11 58 4 106 7 107 8 5 4
257 -2 341 -8z m2178 -1153 c92 -115 232 -320 285 -418 77 -144 140 -276 181
-380 9 -22 25 -62 36 -90 28 -70 98 -315 116 -405 28 -138 51 -296 60 -406 l6
-72 -385 0 c-287 0 -385 3 -386 11 -3 22 -4 1867 -2 1867 1 0 41 -48 89 -107z
m-4741 -837 l0 -935 -389 1 -388 0 6 79 c4 43 9 87 11 97 2 10 6 44 9 76 10
93 64 339 102 464 93 307 246 623 423 877 71 102 209 275 219 275 4 0 7 -420
7 -934z m4285 782 c1 -90 1 -1581 0 -1660 l0 -56 -1960 0 c-1078 0 -1960 3
-1961 6 -3 21 -4 1759 -1 1770 3 9 405 12 1963 12 l1959 0 0 -72z m-4289
-2096 c5 -105 2 -1852 -4 -1852 -11 0 -172 206 -241 310 -246 370 -414 783
-481 1180 -3 19 -8 42 -10 50 -2 8 -7 40 -10 70 -4 30 -8 66 -10 80 -2 14 -6
59 -10 101 l-7 77 386 0 c353 0 386 -1 387 -16z m4289 -61 c1 -88 1 -1580 0
-1659 l0 -52 -1962 2 -1962 3 -1 885 c0 487 0 888 2 891 2 4 885 7 1963 7
l1960 0 0 -77z m1135 10 c-3 -36 -8 -82 -10 -101 -3 -19 -7 -55 -10 -80 -3
-25 -7 -56 -10 -70 -2 -14 -7 -41 -10 -60 -47 -292 -197 -704 -352 -968 -24
-41 -43 -76 -43 -79 0 -23 -311 -443 -329 -443 -5 0 -7 1834 -2 1862 0 3 174
6 387 6 l385 0 -6 -67z m-1055 -2092 c0 -4 -48 -46 -107 -94 -336 -270 -723
-465 -1143 -577 -63 -16 -122 -31 -130 -33 -111 -21 -200 -37 -234 -41 -22 -2
-57 -6 -76 -9 -163 -23 -566 -23 -700 -1 -14 3 -47 7 -75 11 -57 6 -79 10
-180 29 -167 32 -430 113 -595 183 -288 123 -605 319 -811 502 l-42 37 2046 0
c1126 0 2047 -3 2047 -7z"/>
</g>
</svg>
